<svg width="178" height="315" viewBox="0 0 178 315" fill="none" xmlns="http://www.w3.org/2000/svg">
<path d="M99.9999 11.9588C99.9772 5.33139 94.5861 -0.0227038 87.9588 7.05701e-05C81.3314 0.022845 75.9773 5.41386 76.0001 12.0412L99.9999 11.9588ZM80.5439 311.514C85.2463 316.185 92.8442 316.158 97.5144 311.456L173.619 234.827C178.289 230.124 178.263 222.526 173.561 217.856C168.858 213.186 161.26 213.212 156.59 217.914L88.9417 286.03L20.8266 218.381C16.1242 213.711 8.52626 213.737 3.8561 218.439C-0.814058 223.142 -0.787951 230.74 3.91442 235.41L80.5439 311.514ZM76.0001 12.0412L77.0001 303.041L101 302.959L99.9999 11.9588L76.0001 12.0412Z" fill="#F4F2EF"/>
</svg>
