<svg width="282" height="302" viewBox="0 0 282 302" fill="none" xmlns="http://www.w3.org/2000/svg">
<path d="M141.126 285.821C168.996 285.821 191.589 263.252 191.589 235.411C191.589 207.57 168.996 185 141.126 185C113.255 185 90.6621 207.57 90.6621 235.411C90.6621 263.252 113.255 285.821 141.126 285.821Z" fill="#F4F2EF" stroke="#2D2522" stroke-width="10" stroke-miterlimit="10"/>
<path d="M165.118 39.9794V65.358C157.325 63.1781 149.113 62.0071 140.627 62.0071C132.141 62.0071 124.607 63.0823 117.109 65.0929V39.9794C117.109 26.7377 127.858 16 141.113 16C147.741 16 153.742 18.6807 158.085 23.0259C162.435 27.3637 165.118 33.3585 165.118 39.9794Z" fill="#F4F2EF" stroke="#2D2522" stroke-width="10" stroke-miterlimit="10"/>
<path d="M258.49 239.164C258.49 254.173 246.31 266.347 231.285 266.347H50.2042C42.6917 266.347 35.8944 263.305 30.9696 258.386C26.0448 253.466 23 246.668 23 239.164C23 231.659 26.0448 224.862 30.9696 219.942C35.8944 215.023 42.6917 211.981 50.2042 211.981V152.334C50.2042 127.398 60.3265 104.81 76.6933 88.4681C87.7224 77.4432 101.59 69.261 117.109 65.0926C124.607 63.0821 132.495 62.0068 140.627 62.0068C148.759 62.0068 157.325 63.1778 165.118 65.3578C203.16 76.0292 231.05 110.93 231.05 152.334V211.981H231.285C238.798 211.981 245.595 215.023 250.52 219.942C255.445 224.862 258.49 231.659 258.49 239.164Z" fill="#F4F2EF" stroke="#2D2522" stroke-width="10" stroke-miterlimit="10"/>
</svg>
