<svg width="282" height="302" viewBox="0 0 282 302" fill="none" xmlns="http://www.w3.org/2000/svg">
<path d="M149.267 30.4587C153.875 23.4622 164.54 24.9983 166.991 33.0088C169.07 39.8132 177.423 42.2674 182.846 37.6711C189.233 32.2588 199.036 36.735 199.132 45.1176C199.216 52.234 206.538 56.9443 213.033 54.0641C220.691 50.6739 228.828 57.7364 226.563 65.8069C224.639 72.6593 230.338 79.2417 237.384 78.3116C245.683 77.2136 251.507 86.2921 247.067 93.3966C243.298 99.427 246.911 107.353 253.934 108.446C262.203 109.736 265.24 120.086 258.979 125.649C253.664 130.371 254.904 138.993 261.328 142.03C268.902 145.6 268.902 156.389 261.328 159.959C254.898 162.989 253.664 171.617 258.979 176.34C265.24 181.902 262.203 192.253 253.934 193.543C246.911 194.635 243.298 202.567 247.067 208.592C251.507 215.696 245.683 224.775 237.384 223.677C230.338 222.747 224.639 229.335 226.563 236.181C228.828 244.252 220.685 251.314 213.033 247.924C206.538 245.044 199.216 249.754 199.132 256.871C199.036 265.253 189.233 269.736 182.846 264.317C177.423 259.721 169.07 262.175 166.991 268.98C164.54 276.996 153.875 278.532 149.267 271.53C145.354 265.589 136.654 265.589 132.741 271.53C128.133 278.526 117.468 276.99 115.017 268.98C112.938 262.175 104.585 259.721 99.1625 264.317C92.7751 269.73 82.9723 265.253 82.8764 256.871C82.7926 249.754 75.4704 245.044 68.9752 247.924C61.3175 251.314 53.1805 244.252 55.4454 236.181C57.3689 229.329 51.6705 222.747 44.624 223.677C36.3252 224.775 30.5011 215.696 34.9411 208.592C38.71 202.561 35.0969 194.635 28.0744 193.543C19.8055 192.253 16.7676 181.902 23.0292 176.34C28.344 171.617 27.1037 162.995 20.6803 159.959C13.1066 156.389 13.1066 145.6 20.6803 142.03C27.1097 138.999 28.344 130.371 23.0292 125.649C16.7676 120.086 19.8055 109.736 28.0744 108.446C35.0969 107.353 38.71 99.421 34.9411 93.3966C30.5011 86.2921 36.3252 77.2136 44.624 78.3116C51.6705 79.2417 57.3689 72.6533 55.4454 65.8069C53.1805 57.7364 61.3235 50.6739 68.9752 54.0641C75.4704 56.9443 82.7926 52.234 82.8764 45.1176C82.9723 36.735 92.7751 32.2528 99.1625 37.6711C104.585 42.2674 112.938 39.8132 115.017 33.0088C117.468 24.9923 128.133 23.4562 132.741 30.4587C136.654 36.399 145.354 36.399 149.267 30.4587Z" fill="#F4F2EF" stroke="#2D2522" stroke-width="10" stroke-miterlimit="10"/>
<path d="M140.705 240.766C190.211 240.766 230.344 200.576 230.344 151C230.344 101.424 190.211 61.2344 140.705 61.2344C91.1982 61.2344 51.0654 101.424 51.0654 151C51.0654 200.576 91.1982 240.766 140.705 240.766Z" fill="#F4F2EF" stroke="#2D2522" stroke-width="10" stroke-miterlimit="10"/>
<path d="M97.6406 146.902L127.127 176.43L183.768 119.708" stroke="#2D2522" stroke-width="22" stroke-linecap="round" stroke-linejoin="round"/>
</svg>
