<svg width="282" height="302" viewBox="0 0 282 302" fill="none" xmlns="http://www.w3.org/2000/svg">
<path d="M218.533 11.1562H63.1594C48.712 11.1562 37 22.8759 37 37.3327V263.668C37 278.124 48.712 289.844 63.1594 289.844H218.533C232.98 289.844 244.692 278.124 244.692 263.668V37.3327C244.692 22.8759 232.98 11.1562 218.533 11.1562Z" fill="#F4F2EF" stroke="#2D2522" stroke-width="10" stroke-miterlimit="10"/>
<path d="M112.078 129.307H78.9291C76.3859 129.307 74.3242 131.37 74.3242 133.915V167.085C74.3242 169.63 76.3859 171.693 78.9291 171.693H112.078C114.621 171.693 116.683 169.63 116.683 167.085V133.915C116.683 131.37 114.621 129.307 112.078 129.307Z" fill="#F4F2EF" stroke="#2D2522" stroke-width="10" stroke-miterlimit="10"/>
<path d="M112.078 53.1953H78.9291C76.3859 53.1953 74.3242 55.2583 74.3242 57.8032V90.9735C74.3242 93.5184 76.3859 95.5814 78.9291 95.5814H112.078C114.621 95.5814 116.683 93.5184 116.683 90.9735V57.8032C116.683 55.2583 114.621 53.1953 112.078 53.1953Z" fill="#F4F2EF" stroke="#2D2522" stroke-width="10" stroke-miterlimit="10"/>
<path d="M112.078 205.419H78.9291C76.3859 205.419 74.3242 207.482 74.3242 210.027V243.197C74.3242 245.742 76.3859 247.805 78.9291 247.805H112.078C114.621 247.805 116.683 245.742 116.683 243.197V210.027C116.683 207.482 114.621 205.419 112.078 205.419Z" fill="#F4F2EF" stroke="#2D2522" stroke-width="10" stroke-miterlimit="10"/>
<path d="M71 60.199L94.1213 83.615L135.2 42" stroke="#2D2522" stroke-width="12" stroke-linecap="round" stroke-linejoin="round"/>
<line x1="145.354" y1="73" x2="213.354" y2="73" stroke="#2D2522" stroke-width="10" stroke-linecap="round"/>
<line x1="145.354" y1="150" x2="213.354" y2="150" stroke="#2D2522" stroke-width="10" stroke-linecap="round"/>
<line x1="145.354" y1="227" x2="213.354" y2="227" stroke="#2D2522" stroke-width="10" stroke-linecap="round"/>
</svg>
