<svg width="282" height="302" viewBox="0 0 282 302" fill="none" xmlns="http://www.w3.org/2000/svg">
<path d="M227.481 18H55.5189C50.2618 18 46 21.8445 46 26.5869V39.4131C46 44.1555 50.2618 48 55.5189 48H227.481C232.738 48 237 44.1555 237 39.4131V26.5869C237 21.8445 232.738 18 227.481 18Z" fill="#F4F2EF" stroke="#2D2522" stroke-width="10" stroke-miterlimit="10"/>
<path d="M227.481 254H55.5189C50.2618 254 46 257.844 46 262.587V275.413C46 280.156 50.2618 284 55.5189 284H227.481C232.738 284 237 280.156 237 275.413V262.587C237 257.844 232.738 254 227.481 254Z" fill="#F4F2EF" stroke="#2D2522" stroke-width="10" stroke-miterlimit="10"/>
<path d="M155.205 155.698C152.448 153.053 152.448 148.956 155.205 146.302L190.524 112.423C208.827 94.9323 219 71.9099 219 48H64C64 71.9099 74.173 94.9323 92.4764 112.423L127.795 146.302C130.552 148.947 130.552 153.044 127.795 155.698L92.4764 189.577C74.173 207.068 64 230.09 64 254H219C219 230.09 208.827 207.068 190.524 189.577L155.205 155.698Z" fill="#F4F2EF" stroke="#2D2522" stroke-width="10" stroke-miterlimit="10"/>
</svg>
