<svg width="282" height="302" viewBox="0 0 282 302" fill="none" xmlns="http://www.w3.org/2000/svg">
<path d="M141.061 293C192.458 293 234.122 280.91 234.122 265.996C234.122 251.081 192.458 238.991 141.061 238.991C89.6649 238.991 48 251.081 48 265.996C48 280.91 89.6649 293 141.061 293Z" fill="#2D2522" stroke="#2D2522" stroke-width="10" stroke-miterlimit="10"/>
<path d="M141.061 8C89.6895 8 46.5185 48.6376 48.039 101.198C50.2298 176.836 141.061 266.411 141.061 266.411C141.061 266.411 231.893 176.836 234.083 101.198C235.604 48.6496 192.433 8 141.061 8ZM141.061 146.849C115.896 146.849 95.4959 126.41 95.4959 101.198C95.4959 75.9852 115.896 55.5465 141.061 55.5465C166.226 55.5465 186.627 75.9852 186.627 101.198C186.627 126.41 166.226 146.849 141.061 146.849Z" fill="#F4F2EF" stroke="#2D2522" stroke-width="10" stroke-miterlimit="10"/>
</svg>
