<svg width="282" height="302" viewBox="0 0 282 302" fill="none" xmlns="http://www.w3.org/2000/svg">
<path d="M76.5802 35.3376C56.3199 39.8468 41.7721 57.6282 41.365 78.3802L40 147.965C40 223.339 99.5098 260.795 127.17 274.134C135.983 278.384 146.017 278.384 154.83 274.134C182.49 260.795 242 223.339 242 147.965L240.635 78.3803C240.228 57.6283 225.68 39.8468 205.42 35.3376L150.776 23.1758C144.338 21.7428 137.662 21.7428 131.224 23.1758L76.5802 35.3376Z" fill="#F4F2EF" stroke="#2D2522" stroke-width="10" stroke-miterlimit="10"/>
<path d="M118.726 163.552C119.458 172.69 124.914 178.708 132.282 181.344C134.074 181.985 135.97 180.644 135.97 178.745V150.586C135.97 149.35 135.149 148.262 133.962 147.935C133.021 147.674 131.932 147.413 130.789 147.145C114.598 142.945 98.4065 136.488 98.4065 115.002C98.4065 93.5153 115.038 82.694 133.507 80.6534C134.91 80.497 135.97 79.3277 135.97 77.9202V70.7556C135.97 69.2363 137.209 68 138.732 68H142.763C144.286 68 145.525 69.2363 145.525 70.7556V78.017C145.525 79.3873 146.533 80.5417 147.892 80.7353C165.173 83.2377 179.252 92.3461 181.67 111.725C181.879 113.378 180.595 114.845 178.931 114.845H161.5C160.127 114.845 158.969 113.832 158.768 112.477C157.872 106.437 154.05 101.544 149.108 99.9203C147.339 99.3393 145.525 100.695 145.525 102.557V125.786C145.525 127.052 146.384 128.147 147.615 128.459C149.541 128.943 151.534 129.442 153.781 130.038C185.515 138.759 186 156.686 186 167.507C186 176.474 178.169 197.99 148.026 201.058C146.615 201.2 145.533 202.376 145.533 203.799V212.244C145.533 213.764 144.293 215 142.771 215H138.74C137.217 215 135.977 213.764 135.977 212.244V203.777C135.977 202.376 134.917 201.2 133.522 201.043C111.896 198.682 99.1455 186.64 96.0252 164.155C95.8012 162.51 97.1001 161.05 98.7648 161.05H115.986C117.42 161.05 118.622 162.137 118.734 163.56L118.726 163.552ZM135.97 102.356C135.97 100.635 134.41 99.3245 132.715 99.6372C126.661 100.754 121.398 105.059 121.398 112.745C121.398 118.971 124.631 122.345 132.394 124.713C134.171 125.257 135.97 123.931 135.97 122.077V102.348V102.356ZM145.525 179.103C145.525 180.89 147.197 182.201 148.937 181.784C155.954 180.123 163.008 175.416 163.008 166.531C163.008 158.972 159.201 155.464 149.116 152.366C147.332 151.822 145.525 153.133 145.525 154.995V179.095V179.103Z" fill="#2D2522"/>
</svg>
